<?xml version="1.0" standalone="no"?><!DOCTYPE svg PUBLIC "-//W3C//DTD SVG 1.1//EN" "http://www.w3.org/Graphics/SVG/1.1/DTD/svg11.dtd"><svg t="1732370590364" class="icon" viewBox="0 0 1024 1024" version="1.1" xmlns="http://www.w3.org/2000/svg" p-id="3186" xmlns:xlink="http://www.w3.org/1999/xlink" width="200" height="200"><path d="M563.2 370.3m-53.1 0a53.1 53.1 0 1 0 106.2 0 53.1 53.1 0 1 0-106.2 0Z" fill="#515151" p-id="3187"></path><path d="M894.6 865.7L699.2 670.3c62.4-61.3 101.2-146.6 101.2-240.7C800.4 243.4 648.9 92 462.8 92S125.2 243.4 125.2 429.6s151.4 337.6 337.6 337.6c63.9 0 123.6-17.8 174.6-48.8l202.2 202.2c7.6 7.6 17.5 11.4 27.5 11.4 9.9 0 19.9-3.8 27.5-11.4 15.1-15.1 15.1-39.7 0-54.9zM462.8 689.5c-143.3 0-259.9-116.6-259.9-259.9s116.6-259.9 259.9-259.9 259.9 116.6 259.9 259.9-116.6 259.9-259.9 259.9z" fill="#515151" p-id="3188"></path></svg>